HIERARCHY
ROOT Hips
{
	OFFSET 0.000000 0.000000 0.000000
	CHANNELS 6 Xposition Yposition Zposition Zrotation Yrotation Xrotation 
	JOINT LHipJoint
	{
		OFFSET 0.000000 0.000000 0.000000
		CHANNELS 3 Zrotation Yrotation Xrotation
		JOINT LeftUpLeg
		{
			OFFSET 1.363060 -1.794630 0.839290
			CHANNELS 3 Zrotation Yrotation Xrotation
			JOINT LeftLeg
			{
				OFFSET 2.448110 -6.726130 0.000000
				CHANNELS 3 Zrotation Yrotation Xrotation
				JOINT LeftFoot
				{
					OFFSET 2.562200 -7.039590 0.000000
					CHANNELS 3 Zrotation Yrotation Xrotation
					JOINT LeftToeBase
					{
						OFFSET 0.157640 -0.433110 2.322550
						CHANNELS 3 Zrotation Yrotation Xrotation
						End Site
						{
							OFFSET 0.000000 0.000000 0.000000
						}
					}
				}
			}
		}
	}
	JOINT RHipJoint
	{
		OFFSET 0.000000 0.000000 0.000000
		CHANNELS 3 Zrotation Yrotation Xrotation
		JOINT RightUpLeg
		{
			OFFSET -1.305520 -1.794630 0.839290
			CHANNELS 3 Zrotation Yrotation Xrotation
			JOINT RightLeg
			{
				OFFSET -2.542530 -6.985550 0.000000
				CHANNELS 3 Zrotation Yrotation Xrotation
				JOINT RightFoot
				{
					OFFSET -2.568260 -7.056230 0.000000
					CHANNELS 3 Zrotation Yrotation Xrotation
					JOINT RightToeBase
					{
						OFFSET -0.164730 -0.452590 2.363150
						CHANNELS 3 Zrotation Yrotation Xrotation
						End Site
						{
							OFFSET 0.000000 0.000000 0.000000
						}
					}
				}
			}
		}
	}
	JOINT LowerBack
	{
		OFFSET 0.000000 0.000000 0.000000
		CHANNELS 3 Zrotation Yrotation Xrotation
		JOINT Spine
		{
			OFFSET 0.028270 2.035590 -0.193380
			CHANNELS 3 Zrotation Yrotation Xrotation
			JOINT Spine1
			{
				OFFSET 0.056720 2.048850 -0.042750
				CHANNELS 3 Zrotation Yrotation Xrotation
				JOINT Neck
				{
					OFFSET 0.000000 0.000000 0.000000
					CHANNELS 3 Zrotation Yrotation Xrotation
					JOINT Neck1
					{
						OFFSET -0.054170 1.746240 0.172020
						CHANNELS 3 Zrotation Yrotation Xrotation
						JOINT Head
						{
							OFFSET 0.104070 1.761360 -0.123970
							CHANNELS 3 Zrotation Yrotation Xrotation
							End Site
							{
								OFFSET 0.000000 0.000000 0.000000
							}
						}
					}
				}
				JOINT LeftShoulder
				{
					OFFSET 0.000000 0.000000 0.000000
					CHANNELS 3 Zrotation Yrotation Xrotation
					JOINT LeftArm
					{
						OFFSET 3.362410 1.200890 -0.311210
						CHANNELS 3 Zrotation Yrotation Xrotation
						JOINT LeftForeArm
						{
							OFFSET 4.983000 -0.000000 -0.000000
							CHANNELS 3 Zrotation Yrotation Xrotation
							JOINT LeftHand
							{
								OFFSET 3.483560 -0.000000 -0.000000
								CHANNELS 3 Zrotation Yrotation Xrotation
								JOINT LeftFingerBase
								{
									OFFSET 0.000000 0.000000 0.000000
									CHANNELS 3 Zrotation Yrotation Xrotation
									JOINT LeftHandIndex1
									{
										OFFSET 0.715260 -0.000000 -0.000000
										CHANNELS 3 Zrotation Yrotation Xrotation
										End Site
										{
											OFFSET 0.000000 0.000000 0.000000
										}
									}
								}
								JOINT LThumb
								{
									OFFSET 0.000000 0.000000 0.000000
									CHANNELS 3 Zrotation Yrotation Xrotation
									End Site
									{
										OFFSET 0.000000 0.000000 0.000000
									}
								}
							}
						}
					}
				}
				JOINT RightShoulder
				{
					OFFSET 0.000000 0.000000 0.000000
					CHANNELS 3 Zrotation Yrotation Xrotation
					JOINT RightArm
					{
						OFFSET -3.136600 1.374050 -0.404650
						CHANNELS 3 Zrotation Yrotation Xrotation
						JOINT RightForeArm
						{
							OFFSET -5.241900 -0.000000 -0.000000
							CHANNELS 3 Zrotation Yrotation Xrotation
							JOINT RightHand
							{
								OFFSET -3.444170 -0.000000 -0.000000
								CHANNELS 3 Zrotation Yrotation Xrotation
								JOINT RightFingerBase
								{
									OFFSET 0.000000 0.000000 0.000000
									CHANNELS 3 Zrotation Yrotation Xrotation
									JOINT RightHandIndex1
									{
										OFFSET -0.622530 -0.000000 -0.000000
										CHANNELS 3 Zrotation Yrotation Xrotation
										End Site
										{
											OFFSET 0.000000 0.000000 0.000000
										}
									}
								}
								JOINT RThumb
								{
									OFFSET 0.000000 0.000000 0.000000
									CHANNELS 3 Zrotation Yrotation Xrotation
									End Site
									{
										OFFSET 0.000000 0.000000 0.000000
									}
								}
							}
						}
					}
				}
			}
		}
	}
}
MOTION
Frames: 9
Frame Time: 0.008333
0.125916 18.381370 9.328941 -10.256109 2.963610 16.160948 7.052911 4.566631 -2.195054 -21.120899 -50.147535 22.827053 -3.926997 -2.610537 -3.772234 -13.204511 46.531355 -41.078260 0.878400 5.974900 16.711500 -0.064851 -4.668259 -0.320863 24.227354 29.497562 2.146161 3.684874 -0.360633 1.791641 8.921886 -28.294391 -7.621936 -0.053200 -1.489100 4.095600 -1.326339 1.589308 7.955139 24.315481 7.511068 -27.035465 -13.264968 -1.756974 -9.397758 -25.395495 -13.741554 -7.561630 21.765626 -21.641209 25.651386 4.329700 -9.024600 8.920400 -9.842203 -5.938965 2.083992 -86.075086 12.092200 -40.614092 8.389211 -10.214011 -1.272508 0.902556 2.033559 50.144926 17.654200 -11.472330 -4.501100 -7.125000 0.000000 0.000000 -5.985700 15.825700 4.149400 11.423505 7.643483 2.342436 77.874858 -11.614112 -27.863946 -12.208796 16.405256 -2.262390 1.077125 1.288685 50.282506 9.543370 -30.468920 -5.272700 7.125000 0.000000 0.000000 44.665800 -56.234800 -14.294000 
0.125601 18.381160 9.331461 -10.276993 2.960270 16.082919 7.070463 4.581549 -2.174836 -21.321593 -50.243860 23.093900 -3.931372 -2.622670 -3.792786 -13.308564 46.735060 -41.213625 0.840600 5.848200 16.344600 -0.049210 -4.685464 -0.292304 24.275548 29.572504 2.270924 3.688256 -0.343305 1.757533 8.945050 -28.357372 -7.703165 -0.056700 -1.536400 4.226200 -1.359220 1.601353 7.912572 24.482085 7.512385 -26.783782 -13.297150 -1.766588 -9.489802 -25.281176 -13.877252 -7.965749 21.287246 -21.693746 26.093792 4.179200 -9.054400 9.039700 -9.878023 -5.913098 2.063060 -86.117263 12.129942 -40.372320 8.405201 -10.231567 -1.274422 0.886180 2.035039 49.970068 17.684308 -11.416106 -4.489000 -7.125000 0.000000 0.000000 -5.959600 15.890200 4.122800 11.402243 7.638675 2.342325 77.771172 -11.562731 -27.838586 -12.126323 16.304241 -2.232744 1.080899 1.265511 50.291312 9.116842 -30.380181 -5.016600 7.125000 0.000000 0.000000 44.172300 -56.253300 -14.108200 
0.127597 18.380215 9.332092 -10.254395 2.994280 16.080677 7.074309 4.575274 -2.177824 -21.264191 -50.127059 22.964364 -3.924702 -2.627865 -3.804363 -13.418002 46.781715 -40.945608 0.806900 5.732800 16.011000 -0.057018 -4.683263 -0.284879 24.242553 29.452569 2.222400 3.687313 -0.340102 1.748187 8.937144 -28.337102 -7.604508 -0.047200 -1.402200 3.856200 -1.304173 1.604894 7.915166 24.438267 7.506925 -26.766044 -13.308138 -1.764123 -9.514976 -25.214575 -13.941029 -8.123798 21.057604 -21.724119 26.292550 4.105900 -9.073400 9.090200 -9.880496 -5.900399 2.058737 -86.151313 12.176944 -40.072093 8.420919 -10.243494 -1.276396 0.877791 2.035136 49.721106 17.666870 -11.434228 -4.489000 -7.125000 0.000000 0.000000 -5.974100 15.875400 4.134900 11.408094 7.635356 2.346520 77.774397 -11.555901 -27.970218 -12.124855 16.301804 -2.230881 1.079448 1.264396 50.325189 9.104237 -30.338959 -5.004300 7.125000 0.000000 0.000000 44.120400 -56.223400 -14.052300 
0.134528 18.378955 9.329466 -10.257387 3.072137 16.079445 7.076260 4.560653 -2.185386 -21.174889 -49.981518 22.789780 -3.914176 -2.618449 -3.775159 -13.545993 46.797167 -40.533542 0.773600 5.615800 15.673800 -0.073371 -4.675251 -0.268334 24.203799 29.134689 2.072420 3.684849 -0.335708 1.741910 8.872585 -28.162464 -7.426359 -0.043900 -1.352600 3.719500 -1.112658 1.599216 7.937411 24.348469 7.488751 -26.744269 -13.387255 -1.766351 -9.540662 -25.175477 -13.967307 -8.188165 20.981670 -21.739911 26.359756 4.074300 -9.081100 9.101100 -9.876863 -5.892904 2.055745 -86.179452 12.160501 -39.936710 8.420376 -10.239266 -1.278439 0.872401 2.048442 49.623838 17.764370 -11.475328 -4.532200 -7.125000 0.000000 0.000000 -5.901200 15.816300 4.091400 11.429696 7.634591 2.346845 77.819378 -11.523583 -28.206663 -12.164900 16.348183 -2.240422 1.072530 1.271756 50.386463 9.250162 -30.241527 -5.075400 7.125000 0.000000 0.000000 44.165300 -56.116400 -13.948900 
0.136313 18.378220 9.328626 -10.213506 3.026609 16.110242 7.046002 4.558066 -2.186641 -21.122298 -49.908505 22.662809 -3.909815 -2.606948 -3.761257 -13.587178 46.808948 -40.407338 0.765000 5.585500 15.586300 -0.104501 -4.672784 -0.283290 24.171438 29.183264 2.089365 3.687382 -0.319558 1.711229 8.869163 -28.143064 -7.488512 -0.067000 -1.670300 4.595300 -0.948505 1.645590 7.967791 23.930191 7.498949 -26.845652 -13.376311 -1.689658 -9.457583 -24.950955 -14.045444 -8.209682 20.873976 -21.847752 26.384697 3.997200 -9.132600 9.083600 -9.856705 -5.897403 2.067805 -86.065965 12.114971 -39.344904 8.439135 -10.239759 -1.269914 0.792108 2.036718 49.341286 17.870749 -10.879201 -4.349300 -7.125000 0.000000 0.000000 -5.789400 16.493100 3.927900 11.515548 7.629585 2.345157 77.960751 -11.449902 -28.348474 -12.158876 16.320042 -2.239427 1.090173 1.273348 50.220358 9.176362 -30.619599 -5.083100 7.125000 0.000000 0.000000 44.468400 -56.429600 -14.434600 
0.124761 18.382525 9.350470 -10.344947 3.080929 16.471053 7.005698 4.581545 -2.205334 -20.547073 -50.173013 22.250380 -3.894529 -2.600998 -3.862925 -13.683822 46.980414 -40.499385 0.753200 5.543200 15.464600 -0.111853 -4.636863 -0.370894 24.361047 29.661272 2.119666 3.697768 -0.270838 1.581925 8.992685 -28.505338 -7.822154 -0.107300 -2.112400 5.816400 -0.796136 1.673092 7.403735 23.438924 7.578765 -27.242292 -13.337264 -1.569404 -8.826249 -24.563609 -14.204538 -8.077238 20.729363 -22.075726 26.327280 3.874800 -9.236400 9.060500 -9.818052 -5.975951 2.101018 -85.813884 12.062374 -38.174280 8.484830 -10.240847 -1.253533 0.654864 1.987075 48.767124 17.836652 -9.724141 -3.922100 -7.125000 0.000000 0.000000 -5.766700 17.832700 3.742700 11.591656 7.666955 2.347892 78.268238 -11.375533 -28.283421 -12.114049 16.208723 -2.235571 1.138917 1.269036 49.633773 8.889408 -31.552299 -5.029700 7.125000 0.000000 0.000000 45.138200 -57.223200 -15.639600 
0.110689 18.389877 9.364017 -9.798330 2.805018 16.871575 6.874855 4.603083 -2.250640 -21.104822 -50.788083 22.407947 -3.906112 -2.567465 -3.865817 -13.443806 47.078381 -41.517472 0.823400 5.789700 16.175500 -0.163288 -4.587613 -0.508473 23.703683 30.291804 2.046174 3.704818 -0.263524 1.517071 9.166536 -28.908496 -8.074591 -0.134900 -2.367700 6.523100 -1.230798 1.663736 7.154483 22.414572 7.496870 -27.979462 -12.764590 -1.424295 -8.308678 -24.322369 -14.261372 -7.921837 20.730417 -22.210182 26.383443 3.829400 -9.289900 9.063100 -9.751527 -6.037436 2.170414 -85.691923 12.056891 -37.769522 8.519457 -10.240517 -1.245526 0.603190 1.960076 48.643255 17.780955 -9.205239 -3.720600 -7.125000 0.000000 0.000000 -5.791800 18.435800 3.681800 11.764549 7.664944 2.374725 78.398701 -11.439836 -28.080702 -12.091117 16.156035 -2.238162 1.163100 1.271149 49.171427 8.717343 -32.039972 -4.984900 7.125000 0.000000 0.000000 45.487400 -57.642400 -16.282400 
0.105753 18.393237 9.367378 -9.441224 2.648672 17.040072 6.815444 4.605287 -2.276906 -21.513894 -51.027186 22.495616 -3.912889 -2.548094 -3.837116 -13.303021 47.079120 -41.957453 0.867300 5.938100 16.604900 -0.186703 -4.561105 -0.564842 23.234429 30.481615 1.936070 3.706010 -0.273429 1.517372 9.213531 -28.981976 -8.145772 -0.144800 -2.452400 6.757600 -1.546518 1.629885 7.117773 22.023236 7.417883 -28.316408 -12.443899 -1.394641 -8.165133 -24.370933 -14.233522 -7.850791 20.857875 -22.223805 26.480900 3.869500 -9.282600 9.098800 -9.723980 -6.059263 2.201982 -85.751798 12.042266 -38.091447 8.517035 -10.229015 -1.244697 0.617987 1.964734 48.879363 17.802474 -9.239222 -3.740100 -7.125000 0.000000 0.000000 -5.776400 18.388100 3.678000 11.832851 7.662780 2.395806 78.367113 -11.474550 -28.048240 -12.060270 16.114568 -2.231280 1.166893 1.269204 49.198096 8.724036 -32.051956 -4.988700 7.125000 0.000000 0.000000 45.505000 -57.651700 -16.301300 
0.105753 18.392817 9.367483 -9.431491 2.656313 17.062651 6.817001 4.601350 -2.278695 -21.430100 -50.969526 22.364708 -3.911091 -2.544425 -3.823859 -13.273165 47.001162 -41.873010 0.878600 5.975800 16.714100 -0.181535 -4.558387 -0.567202 23.211336 30.511703 1.921836 3.706911 -0.276032 1.523809 9.214601 -28.979798 -8.206611 -0.153700 -2.526000 6.961700 -1.567675 1.622418 7.107835 22.065780 7.417593 -28.326224 -12.444915 -1.404282 -8.163780 -24.446156 -14.209179 -7.815844 20.991005 -22.224031 26.492730 3.912600 -9.272100 9.114200 -9.724688 -6.065498 2.202264 -85.798433 12.001131 -38.262369 8.501735 -10.210163 -1.243798 0.621694 1.976767 48.985730 17.889824 -9.268425 -3.773600 -7.125000 0.000000 0.000000 -5.708300 18.341000 3.640200 11.832232 7.672027 2.401965 78.350184 -11.418347 -28.240827 -12.008475 16.041778 -2.214712 1.172184 1.262399 49.414939 8.755616 -32.035076 -5.003000 7.125000 0.000000 0.000000 45.512900 -57.632200 -16.282600 
